<svg viewBox="0 0 560 260" xmlns="http://www.w3.org/2000/svg">
  <defs>
    <marker id="arr" viewBox="0 0 10 10" refX="8" refY="5" markerWidth="6" markerHeight="6" orient="auto">
      <path d="M0,0 L10,5 L0,10 z" fill="#484f58"/>
    </marker>
  </defs>
  <rect width="560" height="260" rx="12" fill="#0d1117"/>

  <!-- Step 1 -->
  <rect x="40" y="16" width="480" height="52" rx="8" fill="#161b22" stroke="#21262d" stroke-width="1"/>
  <rect x="40" y="16" width="480" height="2.5" rx="1.25" fill="#22d3ee" opacity="0.5"/>
  <text x="280" y="37" text-anchor="middle" font-family="'Inter',system-ui,sans-serif" font-size="12.5" font-weight="700" fill="#f0f6fc">Constraint Pre-Check</text>
  <text x="280" y="55" text-anchor="middle" font-family="'Inter',system-ui,sans-serif" font-size="10.5" fill="#8b949e">Read earned_constraints.json FIRST — before generating any variant</text>
  <line x1="280" y1="68" x2="280" y2="90" stroke="#484f58" stroke-width="1.5" marker-end="url(#arr)"/>

  <!-- Step 2 -->
  <rect x="40" y="94" width="480" height="52" rx="8" fill="#161b22" stroke="#21262d" stroke-width="1"/>
  <rect x="40" y="94" width="480" height="2.5" rx="1.25" fill="#22d3ee" opacity="0.5"/>
  <text x="280" y="115" text-anchor="middle" font-family="'Inter',system-ui,sans-serif" font-size="12.5" font-weight="700" fill="#f0f6fc">Deliberate</text>
  <text x="280" y="133" text-anchor="middle" font-family="'Inter',system-ui,sans-serif" font-size="10.5" fill="#8b949e">Generate N prompt variants — each testing a distinct hypothesis</text>
  <line x1="280" y1="146" x2="280" y2="168" stroke="#484f58" stroke-width="1.5" marker-end="url(#arr)"/>

  <!-- Step 3 -->
  <rect x="40" y="172" width="480" height="52" rx="8" fill="#161b22" stroke="#21262d" stroke-width="1"/>
  <rect x="40" y="172" width="480" height="2.5" rx="1.25" fill="#22d3ee" opacity="0.5"/>
  <text x="280" y="193" text-anchor="middle" font-family="'Inter',system-ui,sans-serif" font-size="12.5" font-weight="700" fill="#f0f6fc">Output</text>
  <text x="280" y="211" text-anchor="middle" font-family="'JetBrains Mono',ui-monospace,monospace" font-size="10.5" fill="#a78bfa">prompt_plan_json  →  GenerationAgent</text>

  <text x="280" y="248" text-anchor="middle" font-family="'JetBrains Mono',ui-monospace,monospace" font-size="8.5" fill="#30363d">PromptCraftAgent · Pattern 2 — Deliberative</text>
</svg>
